<?xml version="1.0" standalone="no"?>
<!DOCTYPE svg PUBLIC "-//W3C//DTD SVG 20010904//EN"
 "http://www.w3.org/TR/2001/REC-SVG-20010904/DTD/svg10.dtd">
<svg version="1.0" xmlns="http://www.w3.org/2000/svg"
 width="372.000000pt" height="404.000000pt" viewBox="0 0 372.000000 404.000000"
 preserveAspectRatio="xMidYMid meet">

<g transform="translate(0.000000,404.000000) scale(0.100000,-0.100000)"
fill="#000000" stroke="none">
<path d="M1760 4025 c0 -8 -3 -15 -7 -15 -132 -3 -165 -10 -250 -53 -49 -24
-107 -57 -131 -74 -31 -23 -59 -34 -100 -38 -80 -9 -112 -21 -154 -55 -45 -37
-68 -81 -68 -129 0 -20 -4 -53 -9 -74 -7 -28 -6 -41 5 -52 19 -18 18 -39 -1
-31 -9 3 -15 0 -15 -10 0 -8 7 -17 15 -20 8 -4 15 -12 15 -20 0 -8 9 -13 23
-11 24 2 27 -16 14 -83 -5 -26 -4 -31 4 -20 9 12 10 10 6 -8 -3 -13 2 -46 10
-73 13 -39 14 -55 5 -75 -7 -14 -12 -41 -12 -61 0 -30 3 -35 20 -30 25 6 34
-7 16 -22 -11 -9 -12 -20 -3 -52 8 -32 17 -44 41 -54 21 -9 37 -10 49 -4 9 6
21 7 26 4 5 -3 11 -1 13 4 6 16 48 -8 48 -28 0 -15 -5 -19 -17 -14 -10 3 -14
2 -10 -2 4 -5 -3 -15 -15 -22 l-23 -12 26 -1 c24 0 59 26 59 44 0 4 7 15 16
23 11 11 14 26 10 47 -17 84 -17 86 4 86 11 0 20 5 20 10 0 6 -8 10 -19 10
-10 0 -48 16 -85 35 -37 19 -73 35 -79 35 -7 1 -23 10 -36 21 -24 19 -24 21
-11 92 7 40 15 78 18 85 7 20 50 34 71 22 10 -5 31 -6 47 -1 24 6 33 2 61 -25
27 -27 38 -32 65 -28 29 5 34 2 46 -24 12 -28 16 -30 80 -32 37 -2 110 -2 162
-1 52 2 120 3 150 3 66 1 237 -17 265 -28 45 -17 93 -57 114 -94 22 -39 22
-44 10 -134 -9 -68 -9 -105 -1 -137 13 -57 16 -270 3 -249 -6 8 -11 12 -13 10
-13 -17 -31 -68 -29 -82 3 -23 -38 -45 -50 -27 -7 11 -9 10 -9 -3 0 -9 5 -20
10 -23 8 -5 8 -11 0 -20 -6 -7 -10 -17 -9 -21 4 -17 -13 -44 -24 -37 -6 3 -7
1 -3 -6 4 -6 12 -9 17 -6 5 4 9 -1 9 -9 0 -8 -5 -18 -10 -21 -6 -3 -8 -16 -6
-28 1 -12 1 -16 -1 -9 -7 20 -22 14 -29 -13 -3 -14 -10 -25 -15 -25 -12 0 -11
27 1 35 6 3 10 16 9 28 0 22 0 22 -10 -1 -5 -13 -18 -35 -29 -49 -11 -14 -20
-36 -20 -49 0 -13 -5 -24 -11 -24 -5 0 -7 5 -4 10 3 6 -1 10 -9 10 -9 0 -18
12 -22 28 -11 51 -13 47 -8 -13 5 -53 4 -58 -8 -42 -13 18 -15 17 -28 -7 -9
-19 -19 -25 -32 -20 -14 4 -18 0 -18 -19 0 -29 -29 -41 -67 -26 -14 5 -28 7
-31 4 -3 -3 -13 2 -23 11 -16 14 -18 14 -24 -6 -4 -12 -12 -19 -19 -17 -7 3
-21 -4 -30 -14 -9 -11 -21 -17 -26 -14 -6 3 -10 -1 -10 -9 0 -9 -4 -16 -9 -16
-12 0 -23 29 -15 41 8 14 -6 10 -22 -6 -9 -8 -12 -19 -9 -25 3 -5 1 -10 -4
-10 -6 0 -11 4 -11 9 0 5 -6 11 -14 14 -10 4 -13 -1 -10 -16 2 -12 2 -16 -2
-10 -4 9 -11 9 -30 -3 -19 -13 -24 -14 -24 -3 0 11 -2 11 -10 -1 -5 -8 -10
-11 -10 -6 0 5 -7 3 -15 -4 -13 -11 -19 -8 -17 11 1 8 -31 5 -47 -6 -10 -5
-12 -4 -7 3 4 7 2 12 -4 12 -6 0 -13 -7 -17 -16 -6 -15 -7 -15 -19 1 -10 14
-16 15 -27 6 -11 -9 -20 -7 -39 9 -14 10 -28 17 -30 14 -3 -2 -5 8 -4 23 1 18
-4 27 -12 25 -7 -1 -20 5 -29 14 -19 18 -64 111 -83 169 -21 66 -27 60 -17
-17 9 -70 16 -96 36 -128 6 -8 22 -43 37 -78 31 -72 79 -119 161 -158 29 -13
53 -26 53 -28 0 -2 -11 -29 -25 -60 -14 -31 -34 -85 -45 -120 -19 -58 -24 -65
-63 -82 -23 -10 -64 -34 -92 -53 -48 -35 -52 -36 -145 -36 -90 -1 -98 -2 -145
-33 -55 -36 -102 -52 -155 -52 -66 -1 -116 -33 -244 -155 -75 -73 -106 -115
-116 -159 -5 -24 -23 -64 -39 -89 -21 -29 -38 -79 -56 -153 -23 -101 -39 -158
-79 -291 -19 -60 -20 -94 -6 -144 8 -29 6 -49 -12 -105 -12 -38 -22 -71 -23
-74 0 -3 -8 -25 -17 -50 -9 -25 -25 -74 -36 -110 -12 -36 -32 -94 -46 -129
-14 -36 -26 -66 -26 -68 0 -2 184 -3 410 -3 225 0 409 3 409 7 -8 48 28 58 59
18 l20 -25 1340 0 1339 0 9 138 c13 233 9 552 -10 723 -16 145 -16 159 -1 195
10 23 14 51 10 70 -7 38 -161 265 -204 301 -17 14 -31 31 -31 38 0 31 -97 101
-190 138 -52 21 -115 47 -140 57 -61 26 -111 37 -202 44 -79 6 -168 32 -249
73 -26 12 -54 23 -62 23 -9 0 -21 16 -28 38 -6 20 -31 64 -55 97 -24 33 -64
88 -89 123 -42 58 -69 81 -81 70 -2 -3 1 -28 7 -57 10 -46 8 -59 -16 -129 -14
-42 -38 -97 -52 -122 -77 -135 -103 -184 -114 -217 -14 -45 -58 -123 -69 -123
-4 0 -19 -17 -33 -37 -14 -21 -40 -54 -58 -73 -49 -52 -122 -140 -144 -175
-36 -57 -43 -60 -63 -24 -29 53 -130 202 -160 236 -22 24 -31 47 -36 88 -5 47
-23 106 -55 180 -5 11 -14 40 -21 65 -6 25 -16 53 -21 62 -5 10 -9 29 -9 42 0
14 -4 28 -10 31 -16 10 -12 82 4 88 11 4 13 1 9 -10 -5 -12 -2 -15 10 -10 9 3
31 -5 52 -19 49 -33 72 -30 111 12 19 19 38 32 44 29 5 -3 10 -2 10 3 0 5 15
17 32 25 28 14 34 14 41 1 9 -16 47 -19 47 -4 0 6 6 10 13 9 31 -4 46 2 41 15
-4 11 1 14 23 12 16 -2 33 3 41 13 7 9 11 10 7 4 -10 -21 20 -15 40 7 10 11
22 17 27 13 6 -3 14 1 19 8 8 12 11 12 19 -1 8 -12 10 -11 10 8 0 12 4 22 9
22 5 0 13 9 16 20 3 11 11 20 17 20 6 0 33 24 60 52 45 48 94 132 113 197 6
18 9 21 16 10 8 -12 11 -12 19 1 9 13 10 13 10 0 0 -13 1 -13 11 0 7 11 8 4 5
-25 l-5 -40 21 40 c11 22 29 51 39 64 26 32 24 41 -9 41 -16 0 -37 6 -47 14
-17 12 -21 12 -33 -3 -12 -14 -13 -14 -8 4 21 86 46 221 46 248 0 18 5 38 10
43 6 6 12 24 14 40 3 16 9 40 15 54 l10 25 1 -25 c1 -14 4 -19 7 -12 2 6 9 9
15 6 7 -5 9 2 4 20 -7 28 -3 35 48 74 33 25 78 29 96 7 20 -24 26 -19 58 43
42 80 54 152 51 300 -4 178 -16 217 -101 311 -118 130 -157 171 -162 171 -3 0
-25 21 -50 48 -24 26 -59 54 -78 64 -127 63 -203 84 -338 94 -47 4 -97 13
-112 20 -35 18 -58 18 -58 -1z m-551 -1045 c0 -12 -3 -11 -13 3 -8 10 -11 28
-8 40 6 22 6 22 13 -3 4 -14 7 -32 8 -40z m112 30 c28 -16 23 -30 -11 -30 -23
0 -30 4 -30 20 0 22 12 25 41 10z m316 -1054 c-7 -15 -16 -21 -21 -16 -6 6 -4
15 4 25 19 23 29 18 17 -9z m161 -965 c6 -41 -51 -58 -64 -19 -4 15 -1 25 12
35 26 19 48 12 52 -16z m30 -727 c4 -37 -15 -48 -53 -34 -45 17 -24 74 25 68
20 -2 26 -9 28 -34z"/>
<path d="M1750 982 c0 -10 7 -19 15 -19 8 0 15 9 15 19 0 10 -7 18 -15 18 -8
0 -15 -8 -15 -18z"/>
<path d="M1780 259 c0 -12 5 -16 15 -13 8 4 15 12 15 18 0 7 -7 13 -15 13 -8
0 -15 -8 -15 -18z"/>
<path d="M1721 3198 c-91 -7 -176 -31 -202 -54 -22 -20 -13 -57 12 -51 11 3
19 1 19 -3 0 -5 19 -7 41 -6 26 2 36 0 27 -5 -8 -5 -15 -21 -16 -38 0 -22 5
-30 21 -35 17 -4 19 -8 9 -18 -20 -20 -15 -24 36 -26 31 -1 42 1 32 8 -8 5
-18 6 -22 4 -16 -10 -7 23 10 39 25 23 29 22 37 -13 4 -16 12 -31 18 -31 33
-3 54 5 74 28 19 24 24 25 40 12 10 -8 22 -20 26 -26 11 -17 37 -16 37 1 0 7
-26 26 -57 41 -32 15 -52 30 -45 32 7 3 33 -7 58 -22 53 -31 84 -29 33 2 -19
12 -65 28 -104 36 l-70 14 45 6 c25 3 71 4 103 3 31 -2 60 0 63 5 7 12 -27 45
-56 54 -14 4 -30 16 -37 25 -17 24 -36 27 -132 18z m117 -35 c-10 -2 -28 -2
-40 0 -13 2 -5 4 17 4 22 1 32 -1 23 -4z m-8 -33 c8 -5 11 -10 5 -10 -5 0 -17
5 -25 10 -8 5 -10 10 -5 10 6 0 17 -5 25 -10z m-24 -115 c-4 -24 -13 -27 -19
-5 -3 13 0 20 8 20 7 0 12 -7 11 -15z"/>
<path d="M2500 2966 c0 -2 7 -7 16 -10 8 -3 12 -2 9 4 -6 10 -25 14 -25 6z"/>
<path d="M1425 2680 c-15 -6 -8 -9 28 -9 26 -1 47 4 47 9 0 12 -47 12 -75 0z"/>
<path d="M1234 2606 c-56 -56 -69 -82 -55 -113 6 -13 9 -29 6 -34 -3 -5 -1
-18 5 -29 11 -20 12 -20 54 15 30 24 53 35 77 35 48 1 14 19 -43 24 -42 3 -51
16 -28 40 9 9 173 11 225 2 17 -2 46 -6 65 -7 19 -2 37 -6 40 -9 3 -3 17 -13
33 -23 38 -24 35 -41 -5 -33 -63 14 -206 18 -213 7 -4 -8 20 -11 77 -11 83 0
167 -20 201 -49 18 -14 23 -8 32 41 6 29 3 40 -15 58 -13 13 -29 20 -41 17
-11 -3 -26 1 -34 10 -8 8 -15 10 -15 4 0 -13 -41 7 -53 27 -5 7 -12 10 -18 7
-5 -4 -9 0 -9 7 0 11 -2 10 -9 0 -7 -11 -9 -11 -14 2 -4 9 -18 21 -33 26 -21
8 -33 6 -61 -10 -19 -11 -32 -16 -29 -11 5 7 -86 54 -96 49 -2 0 -22 -19 -44
-42z"/>
<path d="M2354 2635 c-17 -13 -17 -14 -2 -15 9 0 20 5 23 11 11 17 0 20 -21 4z"/>
<path d="M1296 2358 c3 -13 7 -23 8 -24 0 0 13 -8 28 -17 29 -18 100 -17 106
2 2 6 12 11 23 11 10 0 19 6 19 13 0 8 -28 17 -78 25 -109 17 -115 17 -106
-10z"/>
<path d="M1916 2004 c-9 -23 -8 -24 15 -24 11 0 17 5 14 10 -3 6 4 14 17 19
22 9 21 10 -8 10 -20 1 -34 -5 -38 -15z"/>
</g>
</svg>
